<?xml version="1.0" standalone="no"?><!DOCTYPE svg PUBLIC "-//W3C//DTD SVG 1.1//EN" "http://www.w3.org/Graphics/SVG/1.1/DTD/svg11.dtd"><svg height="1024" node-id="1" sillyvg="true" template-height="1024" template-width="1024" version="1.1" viewBox="0 0 1024 1024" width="1024" xmlns="http://www.w3.org/2000/svg" xmlns:xlink="http://www.w3.org/1999/xlink"><defs node-id="59"><linearGradient gradientUnits="objectBoundingBox" id="linearGradient-3" node-id="6" spreadMethod="pad" x1="1.1591349" x2="0.5" y1="-0.337185" y2="0.6488408"><stop offset="0" stop-color="#6cadff"></stop><stop offset="1" stop-color="#ffffff" stop-opacity="0"></stop></linearGradient><linearGradient gradientUnits="objectBoundingBox" id="linearGradient-4" node-id="9" spreadMethod="pad" x1="0.10503183" x2="0.70498055" y1="-0.20569195" y2="1"><stop offset="0" stop-color="#6cadff"></stop><stop offset="1" stop-color="#ffffff" stop-opacity="0"></stop></linearGradient><linearGradient gradientUnits="objectBoundingBox" id="linearGradient-5" node-id="12" spreadMethod="pad" x1="1.0019176" x2="0.38801584" y1="-0.97780454" y2="1.0473608"><stop offset="0" stop-color="#6cadff"></stop><stop offset="1" stop-color="#ffffff"></stop></linearGradient><linearGradient gradientUnits="objectBoundingBox" id="linearGradient-6" node-id="15" spreadMethod="pad" x1="0.5" x2="0.5" y1="-0.27901396" y2="1"><stop offset="0" stop-color="#6cadff"></stop><stop offset="1" stop-color="#ffffff" stop-opacity="0"></stop></linearGradient><linearGradient gradientUnits="objectBoundingBox" id="linearGradient-7" node-id="18" spreadMethod="pad" x1="0.5" x2="0.5" y1="-0.27901396" y2="1"><stop offset="0" stop-color="#6cadff"></stop><stop offset="1" stop-color="#ffffff" stop-opacity="0"></stop></linearGradient><linearGradient gradientUnits="objectBoundingBox" id="linearGradient-8" node-id="21" spreadMethod="pad" x1="0.5" x2="0.5" y1="-2.211569" y2="1"><stop offset="0" stop-color="#d2d2d2"></stop><stop offset="1" stop-color="#d2d2d2" stop-opacity="0"></stop></linearGradient><linearGradient gradientUnits="objectBoundingBox" id="linearGradient-9" node-id="24" spreadMethod="pad" x1="0.49999997" x2="0.49999997" y1="0" y2="0.99999994"><stop offset="0" stop-color="#d1d1d1"></stop><stop offset="1" stop-color="#eaeaea"></stop></linearGradient><linearGradient gradientUnits="objectBoundingBox" id="linearGradient-10" node-id="27" spreadMethod="pad" x1="0.49999997" x2="0.47684592" y1="0.48522958" y2="0.5419491"><stop offset="0" stop-color="#ffffff"></stop><stop offset="1" stop-color="#f7f7f7"></stop></linearGradient><linearGradient gradientUnits="objectBoundingBox" id="linearGradient-11" node-id="30" spreadMethod="pad" x1="0.2249721" x2="0.5" y1="-0.046902493" y2="0.62072915"><stop offset="0" stop-color="#9cc6ff"></stop><stop offset="1" stop-color="#9cc6ff" stop-opacity="0"></stop></linearGradient><mask height="660.895" id="mask-2" maskUnits="userSpaceOnUse" node-id="35" width="1228.7999" x="869.19617" y="1841.9668"><path d="M 993.70 1659.00 L 1973.50 1659.00 L 1976.40 1659.20 L 1981.90 1660.70 L 1986.90 1663.60 L 1989.10 1665.50 L 1991.00 1667.70 L 1993.90 1672.70 L 1995.40 1678.20 L 1995.60 1681.20 L 1995.60 2660.90 L 1995.40 2663.80 L 1994.80 2666.60 L 1993.90 2669.40 L 1992.60 2671.90 L 1991.00 2674.30 L 1989.10 2676.50 L 1986.90 2678.50 L 1984.50 2680.10 L 1979.20 2682.30 L 1976.40 2682.80 L 993.70 2683.00 L 990.80 2682.80 L 985.30 2681.30 L 980.30 2678.50 L 978.10 2676.50 L 976.10 2674.30 L 973.30 2669.40 L 971.80 2663.80 L 971.60 2660.90 L 971.60 1681.20 L 971.80 1678.10 L 973.30 1672.50 L 974.60 1670.00 L 976.80 1666.90 L 979.50 1664.30 L 982.60 1662.10 L 985.10 1660.80 L 990.70 1659.30 L 993.70 1659.00 Z" fill="#ffffff" fill-rule="evenodd" node-id="118" stroke="none" target-height="1024" target-width="1024" target-x="971.6" target-y="1659"></path></mask></defs><g node-id="120"><g node-id="122"><g node-id="123"><g node-id="124"><g node-id="126"><path d="M 755.00 736.10 L 751.90 727.40 L 749.80 717.60 L 749.00 707.50 L 749.40 697.40 L 750.60 690.70 L 752.40 684.40 L 754.90 678.60 L 758.30 673.20 L 762.40 668.50 L 767.40 664.50 L 769.50 666.10 L 770.90 668.10 L 771.60 670.50 L 771.60 673.10 L 769.60 689.30 L 769.40 701.80 L 770.10 707.30 L 771.50 710.40 L 772.80 711.50 L 774.60 711.40 L 777.40 709.80 L 781.60 705.30 L 788.60 694.90 L 814.40 649.50 L 821.60 638.70 L 829.60 628.30 L 836.30 621.50 L 842.80 616.40 L 849.00 612.90 L 855.70 610.50 L 861.70 609.50 L 867.20 609.70 L 872.40 611.10 L 876.80 613.60 L 880.30 617.30 L 882.90 621.80 L 884.40 627.30 L 884.70 634.40 L 883.70 641.30 L 881.10 649.60 L 876.50 659.50 L 863.00 681.20 L 858.60 689.00 L 854.80 696.70 L 851.90 704.30 L 850.80 710.10 L 851.00 713.60 L 852.30 715.90 L 854.70 717.40 L 857.80 717.70 L 860.90 717.10 L 867.60 714.60 L 881.30 708.40 L 887.90 706.30 L 892.40 705.60 L 896.70 705.90 L 901.10 707.20 L 904.50 709.40 L 907.30 712.10 L 909.40 715.40 L 911.50 721.00 L 912.60 727.40 L 912.60 733.90 L 911.80 740.20 L 909.10 749.40 L 904.70 758.70 L 898.80 767.40 L 891.40 775.20 L 885.80 779.60 L 879.80 783.30 L 873.10 786.10 L 866.20 788.00 L 858.80 788.80 L 850.80 788.40 L 838.10 786.10 L 823.80 782.40 L 809.50 777.50 L 795.40 771.50 L 786.30 766.70 L 778.10 761.50 L 770.80 756.00 L 764.10 749.70 L 758.90 743.20 L 755.10 736.40 Z" fill="url(#linearGradient-3)" fill-rule="nonzero" group-id="1,3,4,5,7" id="路径" node-id="42" stroke="none" target-height="179.29999" target-width="163.59998" target-x="749" target-y="609.5"></path><path d="M 202.50 678.50 L 194.30 674.10 L 186.20 668.20 L 178.80 661.30 L 172.30 653.50 L 167.10 644.80 L 163.80 635.80 L 162.60 629.60 L 162.60 623.40 L 163.60 617.10 L 166.20 616.90 L 168.60 617.40 L 170.70 618.60 L 172.40 620.60 L 181.90 633.90 L 190.10 643.30 L 194.30 646.90 L 197.40 648.30 L 199.10 648.20 L 200.40 646.90 L 201.40 643.90 L 201.50 637.70 L 199.70 625.30 L 188.30 574.50 L 186.30 561.60 L 185.40 548.50 L 185.80 538.90 L 187.20 530.80 L 189.50 524.10 L 192.80 517.80 L 196.60 513.00 L 200.80 509.50 L 205.70 507.10 L 210.60 506.10 L 215.70 506.30 L 220.50 507.90 L 225.40 511.10 L 230.30 516.10 L 234.20 521.90 L 237.90 529.80 L 241.10 540.20 L 245.60 565.40 L 247.60 574.10 L 250.00 582.40 L 252.90 589.90 L 256.00 595.00 L 258.50 597.40 L 261.00 598.20 L 263.80 597.80 L 266.30 595.90 L 268.10 593.30 L 271.50 586.90 L 277.50 573.20 L 280.90 567.20 L 283.80 563.80 L 287.20 561.20 L 291.30 559.30 L 295.40 558.50 L 299.20 558.70 L 303.00 559.70 L 308.40 562.40 L 313.40 566.50 L 317.80 571.30 L 321.40 576.50 L 325.20 583.60 L 329.30 592.80 L 332.90 602.80 L 336.00 613.60 L 338.20 624.80 L 339.10 635.70 L 338.90 642.90 L 338.00 649.50 L 336.30 655.60 L 333.60 661.30 L 330.00 666.20 L 325.20 670.30 L 319.60 673.60 L 312.90 676.70 L 305.00 679.40 L 292.60 682.60 L 278.90 684.80 L 264.70 686.20 L 250.60 686.60 L 236.60 686.00 L 223.90 684.50 L 212.00 682.00 L 202.70 678.70 Z" fill="url(#linearGradient-4)" fill-rule="nonzero" group-id="1,3,4,5,7" id="路径" node-id="43" stroke="none" target-height="180.49997" target-width="176.5" target-x="162.6" target-y="506.1"></path><path d="M 811.10 522.50 L 807.30 527.90 L 804.10 534.00 L 801.90 540.40 L 800.80 546.90 L 800.90 553.60 L 802.60 560.20 L 804.80 564.10 L 813.10 572.50 L 814.80 576.10 L 815.40 581.60 L 814.20 587.70 L 812.10 593.50 L 809.20 599.00 L 803.00 608.80 L 796.00 618.00 L 788.20 626.50 L 792.70 631.10 L 795.70 636.50 L 797.30 642.60 L 797.30 649.00 L 795.80 655.20 L 793.30 661.10 L 790.00 666.50 L 785.80 671.30 L 782.70 674.20 L 778.90 676.30 L 775.00 676.70 L 771.10 676.30 L 758.50 673.50 L 746.30 669.60 L 734.50 664.60 L 729.10 661.70 L 724.20 658.30 L 720.10 654.00 L 717.40 648.90 L 716.60 644.70 L 716.80 641.80 L 717.80 639.70 L 720.40 637.10 L 728.90 631.90 L 731.70 628.80 L 733.80 624.10 L 735.10 619.00 L 736.70 608.60 L 738.50 590.80 L 740.00 585.10 L 741.80 581.90 L 744.30 579.40 L 747.90 577.60 L 762.30 574.90 L 766.90 572.80 L 770.70 569.80 L 773.80 566.10 L 777.50 559.70 L 785.20 542.70 L 787.30 538.90 L 789.80 535.60 L 792.90 532.90 L 796.90 530.50 L 808.80 524.40 L 811.10 522.50 Z M 781.60 579.70 L 777.80 584.50 L 768.70 597.30 L 763.50 605.90 L 758.00 616.00 L 753.20 626.80 L 749.30 638.40 L 747.40 646.30 L 746.30 654.20 L 746.00 662.10 L 757.90 662.10 L 758.90 654.10 L 762.50 633.90 L 765.50 621.30 L 769.70 607.20 L 775.00 593.20 L 781.60 579.70 Z" fill="url(#linearGradient-5)" fill-rule="nonzero" group-id="1,3,4,5,7" id="形状结合" node-id="44" stroke="none" target-height="154.20001" target-width="98.80005" target-x="716.6" target-y="522.5"></path><path d="M 287.80 298.80 L 287.10 292.30 L 285.00 286.40 L 281.60 281.20 L 277.10 276.90 L 271.70 273.80 L 265.50 271.90 L 259.00 271.60 L 252.90 272.70 L 247.20 275.20 L 242.20 279.00 L 238.30 283.80 L 235.40 289.60 L 229.40 290.40 L 223.90 292.60 L 219.20 296.10 L 215.50 300.90 L 213.20 306.60 L 212.50 312.40 L 213.40 318.30 L 215.90 323.80 L 219.70 328.50 L 224.50 331.90 L 230.10 333.90 L 236.10 334.50 L 285.60 334.50 L 290.20 333.80 L 294.20 332.10 L 297.70 329.50 L 300.50 326.10 L 302.30 322.20 L 303.30 317.70 L 302.90 313.00 L 301.60 308.90 L 299.20 305.20 L 296.10 302.10 L 292.30 300.00 Z" fill="url(#linearGradient-6)" fill-rule="nonzero" group-id="1,3,4,5,7" id="路径" node-id="45" stroke="none" target-height="62.899994" target-width="90.79999" target-x="212.5" target-y="271.6"></path><path d="M 492.10 271.70 L 491.70 266.10 L 490.50 261.10 L 488.50 256.30 L 484.20 249.90 L 478.60 244.70 L 474.30 241.90 L 469.50 239.90 L 464.20 238.50 L 458.80 238.00 L 453.60 238.40 L 448.60 239.50 L 441.60 242.60 L 435.40 247.20 L 431.90 251.00 L 429.10 255.40 L 426.90 260.30 L 421.80 260.90 L 417.10 262.20 L 412.80 264.40 L 408.90 267.20 L 405.60 270.60 L 402.90 274.60 L 400.80 279.00 L 399.70 283.70 L 399.20 288.80 L 399.80 293.90 L 401.10 298.60 L 403.30 302.90 L 406.20 306.80 L 409.60 310.10 L 413.50 312.80 L 417.90 314.80 L 422.60 316.00 L 427.80 316.40 L 489.20 316.40 L 494.90 315.70 L 500.10 313.60 L 504.50 310.30 L 508.00 306.10 L 510.50 301.10 L 511.60 295.40 L 511.20 289.70 L 509.40 284.40 L 506.40 279.80 L 502.40 276.00 L 497.60 273.30 L 492.00 271.90 Z" fill="url(#linearGradient-7)" fill-rule="nonzero" group-id="1,3,4,5,7" id="路径" node-id="46" stroke="none" target-height="78.399994" target-width="112.399994" target-x="399.2" target-y="238"></path></g><path d="M 1024.00 788.40 L 999.60 772.40 L 973.80 757.20 L 946.70 742.60 L 918.00 728.80 L 889.20 716.20 L 859.10 704.50 L 827.80 693.70 L 795.30 683.70 L 762.70 675.00 L 729.10 667.40 L 694.50 660.70 L 658.90 655.20 L 623.30 650.90 L 587.00 647.80 L 549.90 645.90 L 512.00 645.20 L 474.10 645.90 L 437.00 647.80 L 400.60 650.90 L 365.10 655.20 L 329.50 660.70 L 294.90 667.40 L 261.30 675.00 L 228.70 683.70 L 196.20 693.70 L 164.90 704.50 L 134.80 716.20 L 105.90 728.80 L 77.30 742.60 L 50.20 757.20 L 24.40 772.40 L 0.00 788.40 Z" fill="url(#linearGradient-8)" fill-rule="nonzero" group-id="1,3,4,5" id="路径" node-id="47" stroke="none" target-height="143.20001" target-width="1024" target-x="0" target-y="645.2"></path></g><g node-id="125"><path d="M 492.10 349.60 L 495.60 349.20 L 498.80 349.60 L 501.80 350.90 L 504.40 352.90 L 506.40 355.40 L 507.80 358.70 L 508.20 363.10 L 507.10 367.20 L 504.60 370.80 L 501.10 373.40 L 505.80 390.90 L 500.90 392.20 L 496.20 374.70 L 491.90 374.20 L 488.00 372.30 L 485.00 369.30 L 483.10 365.20 L 482.60 361.80 L 483.10 358.60 L 484.40 355.60 L 486.40 353.00 L 488.90 351.00 Z" fill="url(#linearGradient-9)" fill-rule="evenodd" group-id="1,3,4,6" id="形状结合" node-id="49" stroke="none" target-height="43" target-width="25.600006" target-x="482.6" target-y="349.2"></path><path d="M 627.50 440.30 L 629.40 449.30 L 630.10 458.30 L 629.80 467.10 L 628.40 476.00 L 625.10 487.50 L 620.20 498.60 L 613.50 509.40 L 605.60 519.30 L 596.30 528.40 L 585.60 536.70 L 573.90 543.80 L 561.10 549.70 L 547.00 554.30 L 532.50 557.30 L 518.50 558.60 L 504.90 558.30 L 491.40 556.50 L 478.80 553.20 L 467.00 548.70 L 455.80 542.60 L 446.00 535.50 L 437.40 527.20 L 431.70 520.20 L 427.00 512.60 L 423.20 504.50 L 420.20 495.70 L 418.40 486.70 L 417.60 477.70 L 418.00 468.90 L 419.30 460.00 L 422.70 448.50 L 427.60 437.40 L 434.20 426.60 L 442.10 416.70 L 451.40 407.60 L 462.20 399.30 L 473.90 392.20 L 486.70 386.30 L 500.70 381.70 L 515.20 378.70 L 529.20 377.40 L 542.90 377.70 L 556.40 379.50 L 569.00 382.80 L 580.80 387.30 L 591.90 393.40 L 601.70 400.50 L 610.40 408.80 L 616.00 415.80 L 620.80 423.40 L 624.60 431.50 Z" fill="#9cc6ff" fill-rule="evenodd" group-id="1,3,4,6" id="椭圆形" node-id="50" stroke="none" target-height="181.19998" target-width="212.49997" target-x="417.6" target-y="377.4"></path><path d="M 751.40 467.90 L 752.20 474.00 L 751.90 480.30 L 750.10 487.00 L 746.80 494.20 L 741.10 503.00 L 733.00 512.40 L 722.10 522.60 L 710.50 531.70 L 696.70 541.20 L 680.50 550.90 L 663.80 559.70 L 645.40 568.40 L 625.00 577.00 L 604.40 584.70 L 582.40 592.00 L 558.90 598.70 L 535.30 604.60 L 512.60 609.30 L 490.80 612.90 L 468.90 615.70 L 448.60 617.30 L 429.80 618.00 L 410.80 617.70 L 394.20 616.40 L 379.50 614.30 L 365.00 610.90 L 353.30 606.80 L 343.90 602.00 L 337.40 597.40 L 332.60 592.50 L 329.10 587.20 L 326.80 581.50 L 325.90 575.50 L 326.30 569.20 L 328.10 562.50 L 331.40 555.30 L 337.10 546.50 L 345.20 537.00 L 356.10 526.90 L 367.70 517.70 L 381.50 508.30 L 397.70 498.60 L 414.40 489.80 L 432.80 481.00 L 453.20 472.50 L 473.80 464.70 L 495.80 457.50 L 519.20 450.70 L 542.90 444.90 L 565.60 440.20 L 587.30 436.60 L 609.30 433.80 L 629.60 432.10 L 648.40 431.40 L 667.30 431.80 L 684.00 433.00 L 698.70 435.20 L 713.10 438.50 L 724.90 442.70 L 734.30 447.40 L 740.80 452.00 L 745.60 457.00 L 749.10 462.20 Z" fill="#64adff" fill-rule="evenodd" group-id="1,3,4,6" id="椭圆形" node-id="51" stroke="none" target-height="186.6" target-width="426.30002" target-x="325.9" target-y="431.4"></path><path d="M 699.90 495.40 L 699.90 493.40 L 700.80 491.40 L 702.70 489.30 L 706.50 486.80 L 711.80 485.00 L 717.30 484.50 L 721.80 485.20 L 724.40 486.40 L 726.00 487.80 L 726.90 489.60 L 726.80 491.70 L 725.90 493.70 L 724.00 495.80 L 720.20 498.20 L 715.00 500.00 L 709.40 500.50 L 705.00 499.80 L 702.40 498.70 L 700.70 497.20 L 699.90 495.40 Z M 384.30 567.00 L 389.60 565.50 L 394.10 565.40 L 396.90 566.10 L 398.70 567.30 L 399.90 568.90 L 400.20 570.90 L 399.70 573.00 L 398.20 575.40 L 394.90 578.50 L 390.00 581.20 L 384.60 582.60 L 380.10 582.70 L 377.40 582.00 L 375.50 580.90 L 374.30 579.20 L 374.00 577.20 L 374.50 575.10 L 376.10 572.70 L 379.30 569.60 L 384.30 567.00 Z M 582.20 488.20 L 582.30 484.80 L 583.80 481.40 L 586.90 477.90 L 590.90 475.10 L 595.90 472.70 L 602.10 470.90 L 608.50 470.00 L 614.00 470.20 L 618.70 471.20 L 623.10 473.10 L 625.80 475.60 L 627.20 478.60 L 627.10 481.90 L 625.70 485.30 L 622.50 488.80 L 618.50 491.70 L 613.60 494.00 L 607.40 495.90 L 601.00 496.70 L 595.50 496.50 L 590.70 495.60 L 586.40 493.60 L 583.70 491.20 L 582.20 488.20 Z M 471.10 500.70 L 477.40 499.20 L 482.90 498.70 L 487.70 499.20 L 492.20 500.70 L 495.20 502.80 L 496.90 505.70 L 497.20 509.00 L 496.10 512.50 L 493.30 516.40 L 489.70 519.60 L 485.00 522.40 L 479.00 524.90 L 472.70 526.40 L 467.20 526.90 L 462.40 526.40 L 457.90 524.90 L 454.90 522.70 L 453.20 519.90 L 452.90 516.50 L 454.00 513.10 L 456.80 509.20 L 460.40 506.00 L 465.10 503.10 L 471.10 500.70 Z" fill="url(#linearGradient-10)" fill-rule="evenodd" group-id="1,3,4,6" id="形状结合" node-id="52" stroke="none" target-height="112.70001" target-width="352.90002" target-x="374" target-y="470"></path><path d="M 658.30 516.60 L 658.30 520.20 L 656.50 524.40 L 652.20 529.60 L 647.00 534.10 L 639.80 539.10 L 630.20 544.70 L 614.90 552.20 L 595.80 560.10 L 575.40 567.30 L 552.30 574.10 L 529.00 579.70 L 507.70 583.70 L 487.20 586.40 L 470.10 587.50 L 459.10 587.50 L 450.30 586.70 L 443.60 585.40 L 437.20 583.10 L 433.60 580.30 L 431.90 577.20 L 431.80 573.60 L 433.60 569.50 L 437.90 564.30 L 443.10 559.80 L 450.30 554.80 L 459.80 549.20 L 475.10 541.60 L 494.30 533.70 L 514.70 526.60 L 537.80 519.80 L 561.10 514.20 L 582.40 510.10 L 602.90 507.40 L 619.90 506.30 L 631.00 506.40 L 639.80 507.10 L 646.50 508.40 L 652.90 510.80 L 656.50 513.50 Z" fill="#ffffff" fill-rule="evenodd" group-id="1,3,4,6" id="椭圆形复制-6" node-id="53" stroke="none" target-height="81.20001" target-width="226.5" target-x="431.8" target-y="506.3"></path><path d="M 467.90 555.20 L 391.50 779.40 L 431.70 778.70 L 471.70 776.20 L 511.40 772.00 L 550.90 766.10 L 590.40 758.40 L 629.60 748.90 L 668.90 737.70 L 708.10 724.60 L 747.20 709.60 L 786.40 692.80 L 775.50 681.00 L 615.30 515.60 L 539.60 535.90 Z" fill="url(#linearGradient-11)" fill-rule="evenodd" group-id="1,3,4,6" id="路径-2" node-id="54" stroke="none" target-height="263.80005" target-width="394.90002" target-x="391.5" target-y="515.6"></path><g node-id="127"><path d="M 531.50 647.20 L 513.20 701.40 L 522.10 700.80 L 520.90 683.00 L 548.60 681.20 L 549.70 699.00 L 560.20 698.40 L 561.70 720.10 L 551.20 720.70 L 552.40 738.70 L 524.80 740.40 L 523.60 722.50 L 484.40 725.10 L 483.10 705.30 L 503.00 649.00 Z" fill="#64adff" fill-rule="nonzero" group-id="1,3,4,6,8" id="路径" node-id="56" stroke="none" target-height="93.20001" target-width="78.600006" target-x="483.1" target-y="647.2"></path><path d="M 636.20 643.40 L 635.50 655.10 L 633.60 664.70 L 630.60 672.50 L 626.70 678.70 L 622.60 683.10 L 617.80 686.40 L 612.40 688.90 L 606.20 690.50 L 598.90 691.10 L 591.60 690.50 L 585.30 689.00 L 579.80 686.50 L 575.10 683.10 L 570.90 678.80 L 566.90 672.60 L 563.90 664.80 L 561.90 655.30 L 561.10 643.50 L 561.70 631.80 L 563.60 622.20 L 566.60 614.50 L 570.50 608.20 L 574.60 603.90 L 579.30 600.50 L 584.80 598.00 L 591.10 596.40 L 598.40 595.80 L 605.70 596.40 L 611.90 598.00 L 617.40 600.40 L 622.10 603.80 L 626.30 608.10 L 630.30 614.40 L 633.30 622.10 L 635.40 631.70 L 636.20 643.40 Z M 590.10 643.50 L 590.70 657.00 L 592.00 664.20 L 593.80 667.90 L 596.00 669.70 L 598.90 670.30 L 601.60 669.70 L 603.80 667.80 L 605.50 664.20 L 606.80 656.90 L 607.20 643.40 L 606.60 629.80 L 605.30 622.60 L 603.50 619.00 L 601.30 617.20 L 598.60 616.60 L 595.70 617.20 L 593.50 619.00 L 591.80 622.70 L 590.50 629.90 L 590.10 643.50 Z M 679.60 618.40 L 672.10 675.80 L 680.80 673.50 L 676.10 656.10 L 703.10 648.80 L 707.70 666.30 L 718.00 663.50 L 723.70 684.80 L 713.50 687.60 L 718.20 705.10 L 691.20 712.30 L 686.50 694.80 L 648.20 705.00 L 643.00 685.60 L 651.70 625.90 L 679.60 618.40 Z" fill="#64adff" fill-rule="nonzero" group-id="1,3,4,6,8" id="形状" node-id="57" stroke="none" target-height="116.5" target-width="162.60004" target-x="561.1" target-y="595.8"></path></g></g></g></g></g></svg>