<?xml version="1.0" standalone="no"?><!DOCTYPE svg PUBLIC "-//W3C//DTD SVG 1.1//EN" "http://www.w3.org/Graphics/SVG/1.1/DTD/svg11.dtd"><svg t="1748942118030" class="icon" viewBox="0 0 1024 1024" version="1.1" xmlns="http://www.w3.org/2000/svg" p-id="1719" xmlns:xlink="http://www.w3.org/1999/xlink" width="200" height="200"><path d="M923.9552 475.92448a107.47904 107.47904 0 0 0-84.3776-49.8688c-3.3792-0.4096-6.9632-0.6144-10.6496-0.8192a37.23264 37.23264 0 0 0-36.352-32.768H190.464a37.55008 37.55008 0 0 0-36.864 37.9904c0 155.0336 63.488 290.9184 159.1296 367.3088a50.88256 50.88256 0 0 0 6.144 4.3008 67.52256 67.52256 0 0 0 35.9424 10.24h273.408a67.11296 67.11296 0 0 0 42.0864-14.5408 352.62464 352.62464 0 0 0 40.3456-38.0928c5.0176-0.2048 9.0112-0.512 11.6736-0.8192 122.368-15.5648 175.5136-74.752 198.656-122.1632 31.232-64.2048 20.48-132.7104 2.9696-160.768z m-163.6352 217.8048c-0.3072 0.1024-0.512 0.1024-0.8192 0.2048a502.62016 502.62016 0 0 0 67.4816-211.968 57.99936 57.99936 0 0 1 8.6016 1.4336c27.7504 6.4512 44.544 31.6416 46.7968 61.44 5.9392 79.1552-53.8624 128.6144-122.0608 148.8896z" fill="#CBE0FF" p-id="1720"></path><path d="M923.9552 475.92448a107.47904 107.47904 0 0 0-84.3776-49.8688c-3.3792-0.4096-6.9632-0.6144-10.6496-0.8192a37.23264 37.23264 0 0 0-36.352-32.768h-61.952c9.216 64.3072 9.8304 169.3696-54.784 266.24-84.8896 127.3856-289.5872 142.1312-356.9664 143.36a67.52256 67.52256 0 0 0 35.9424 10.24h273.408a67.11296 67.11296 0 0 0 42.0864-14.5408 352.62464 352.62464 0 0 0 40.3456-38.0928c5.0176-0.2048 9.0112-0.512 11.6736-0.8192 122.368-15.5648 175.5136-74.752 198.656-122.1632 31.232-64.2048 20.48-132.7104 2.9696-160.768z m-163.6352 217.8048c-0.3072 0.1024-0.512 0.1024-0.8192 0.2048a502.62016 502.62016 0 0 0 67.4816-211.968 57.99936 57.99936 0 0 1 8.6016 1.4336c27.7504 6.4512 44.544 31.6416 46.7968 61.44 5.9392 79.1552-53.8624 128.6144-122.0608 148.8896z" fill="#AFBDD6" opacity=".65" p-id="1721"></path><path d="M581.13024 822.54848H299.50976a81.31584 81.31584 0 0 1-49.68448-16.6912C144.6912 724.33664 81.92 584.05888 81.92 430.63296a48.32256 48.32256 0 0 1 48.22016-48.40448h620.35968A48.27136 48.27136 0 0 1 798.72 430.42816c0 153.64096-62.7712 293.90848-167.90528 375.42912a81.31584 81.31584 0 0 1-49.68448 16.6912z m-450.99008-419.84A27.78112 27.78112 0 0 0 102.4 430.4384c0 147.34336 59.8016 281.55904 159.96928 359.23968a60.80512 60.80512 0 0 0 37.14048 12.3904h281.62048a60.80512 60.80512 0 0 0 37.14048-12.3904C718.4384 711.9872 778.24 577.78176 778.24 430.63296a27.82208 27.82208 0 0 0-27.74016-27.92448zM433.54112 352.3072a10.24 10.24 0 0 1-6.144-18.432c30.17728-22.64064 45.13792-39.86432 37.7344-65.9456a149.08416 149.08416 0 0 0-31.9488-50.176 461.03552 461.03552 0 0 1-12.94336-16.03584c-33.25952-43.8784-31.39584-89.77408 5.50912-136.3968a10.24 10.24 0 1 1 16.06656 12.71808c-30.8224 38.912-32.53248 75.3152-5.25312 111.3088 3.7888 4.99712 8.01792 10.07616 12.36992 15.28832a166.31808 166.31808 0 0 1 35.90144 57.7024c12.63616 44.56448-23.552 71.71072-45.1584 87.92064a10.14784 10.14784 0 0 1-6.144 2.048zM530.11456 343.57248a10.24 10.24 0 0 1-6.15424-18.432c21.98528-16.4864 32.9216-28.91776 27.70944-47.32928a111.53408 111.53408 0 0 0-23.72608-37.09952c-3.4816-4.16768-6.8608-8.2432-9.89184-12.2368-25.61024-33.80224-24.15616-70.59456 4.1984-106.41408a10.24 10.24 0 1 1 16.0768 12.71808c-22.86592 28.86656-24.1152 54.70208-3.95264 81.32608 2.84672 3.75808 6.0416 7.5776 9.30816 11.49952a127.86688 127.86688 0 0 1 27.68896 44.62592c10.0352 35.4304-18.23744 56.6272-35.1232 69.29408a10.14784 10.14784 0 0 1-6.144 2.048zM356.03456 343.57248a10.24 10.24 0 0 1-6.15424-18.432c21.98528-16.4864 32.9216-28.91776 27.70944-47.32928a111.53408 111.53408 0 0 0-23.72608-37.09952c-3.4816-4.16768-6.8608-8.2432-9.89184-12.2368-25.61024-33.80224-24.15616-70.59456 4.1984-106.41408a10.24 10.24 0 1 1 16.0768 12.71808c-22.86592 28.86656-24.1152 54.70208-3.95264 81.32608 2.84672 3.75808 6.0416 7.5776 9.30816 11.49952a127.86688 127.86688 0 0 1 27.68896 44.62592c10.0352 35.4304-18.23744 56.6272-35.1232 69.29408a10.14784 10.14784 0 0 1-6.144 2.048z" fill="#493E36" p-id="1722"></path><path d="M676.37248 758.86592a10.24 10.24 0 0 1-0.38912-20.48 72.704 72.704 0 0 0 18.0224-2.3552 54.24128 54.24128 0 0 1 7.23968-1.50528c106.83392-13.54752 152.832-64.74752 172.61568-105.30816 26.35776-54.1696 17.47968-113.2544 3.1744-136.1408-12.42112-19.7632-38.06208-43.02848-88.32-41.17504a10.37312 10.37312 0 0 1-10.58816-9.87136 10.24 10.24 0 0 1 9.87136-10.5984c60.12928-2.1504 91.10528 26.4192 106.38336 50.76992 17.23392 27.56608 27.96544 94.17728-2.10944 155.98592-22.00576 45.1072-72.54016 101.94944-188.44672 116.66432a34.88768 34.88768 0 0 0-4.68992 0.99328 90.8288 90.8288 0 0 1-22.35392 3.01056h-0.4096z" fill="#493E36" p-id="1723"></path><path d="M718.15168 701.6448a10.24 10.24 0 0 1-1.792-20.3264c56.05376-10.01472 91.46368-33.71008 111.43168-74.58816a120.43264 120.43264 0 0 0 11.776-48.00512 10.3424 10.3424 0 0 1 10.5984-9.86112 10.24 10.24 0 0 1 9.86112 10.60864 140.99456 140.99456 0 0 1-13.824 56.23808c-22.784 46.61248-64.07168 74.6496-126.23872 85.77024a10.1376 10.1376 0 0 1-1.81248 0.16384zM842.20928 525.06624a10.24 10.24 0 0 1-8.69376-4.80256 52.76672 52.76672 0 0 1-1.5872-2.82624c-3.34848-6.26688-9.08288-16.78336-36.07552-15.88224a11.69408 11.69408 0 0 0-1.3312 0.18432 17.03936 17.03936 0 0 1-9.60512-0.8704 10.24 10.24 0 0 1 6.56384-19.38432 30.33088 30.33088 0 0 1 3.52256-0.38912c39.87456-1.35168 50.51392 18.31936 54.9888 26.68544 0.32768 0.6144 0.6144 1.16736 0.89088 1.60768a10.24 10.24 0 0 1-8.67328 15.6672z m-50.176-43.38688l-3.55328 9.59488 3.66592-9.5744z" fill="#493E36" p-id="1724"></path><path d="M436.710237 675.080689a58.9312 83.712 10.66 1 0 30.970188-164.534626 58.9312 83.712 10.66 1 0-30.970188 164.534626Z" fill="#A56D4E" p-id="1725"></path><path d="M420.82304 675.80928a51.85536 51.85536 0 0 1-14.22336-1.97632 57.30304 57.30304 0 0 1-34.46784-28.7744 107.58144 107.58144 0 0 1-5.60128-80.384c14.61248-49.64352 56.36096-81.55136 92.94848-71.14752a57.2928 57.2928 0 0 1 34.46784 28.7744 107.58144 107.58144 0 0 1 5.60128 80.384c-12.7488 43.29472-46.10048 73.1136-78.72512 73.1136z m24.32-163.7888c-23.40864 0-48.97792 24.4736-58.9824 58.42944a86.9376 86.9376 0 0 0 3.8912 64.7168 37.84704 37.84704 0 0 0 22.14912 18.96448c25.3952 7.22944 56.45312-18.97472 67.70688-57.23136a86.9376 86.9376 0 0 0-3.8912-64.7168 37.84704 37.84704 0 0 0-22.13888-18.95424 31.88736 31.88736 0 0 0-8.73472-1.20832z" fill="#493E36" p-id="1726"></path><path d="M408.24832 671.04768a10.24 10.24 0 0 1-6.08256-18.49344 45.07648 45.07648 0 0 0 16.0768-32.2048c0.53248-9.18528 0.32768-19.456 0.13312-29.3888a287.24224 287.24224 0 0 1 1.20832-42.1888l0.2048-1.40288a77.60896 77.60896 0 0 1 30.39232-45.8752 10.24 10.24 0 0 1 11.73504 16.78336 57.6 57.6 0 0 0-21.89312 32.28672 270.3872 270.3872 0 0 0-1.16736 39.99744c0.2048 10.32192 0.4096 20.992-0.17408 30.976a65.8432 65.8432 0 0 1-24.43264 47.55456 10.20928 10.20928 0 0 1-6.00064 1.9456z" fill="#493E36" p-id="1727"></path></svg>